<svg version="1.1" id="Layer_1" xmlns="http://www.w3.org/2000/svg" xmlns:xlink="http://www.w3.org/1999/xlink" x="0px" y="0px"
	 width="100%" viewBox="0 0 322 234" enable-background="new 0 0 322 234" xml:space="preserve">
<path fill="#080627" opacity="1.000000" stroke="none" 
	d="
M234.000000,235.000000 
	C156.000031,235.000000 78.500053,235.000000 1.000062,235.000000 
	C1.000042,157.000061 1.000042,79.000114 1.000021,1.000125 
	C108.333244,1.000083 215.666489,1.000083 322.999817,1.000042 
	C322.999878,78.999878 322.999878,156.999756 322.999939,234.999817 
	C293.500000,235.000000 264.000000,235.000000 234.000000,235.000000 
M159.108566,172.075668 
	C156.752274,173.434052 155.492020,181.881897 157.633194,182.764893 
	C158.333740,183.053787 159.961456,181.957489 160.669617,181.090103 
	C161.230301,180.403366 161.033600,179.098297 161.913177,178.101578 
	C162.971420,176.272995 164.029648,174.444412 165.338608,172.182556 
	C163.083054,172.182556 161.525864,172.182556 159.108566,172.075668 
M223.599228,88.554855 
	C222.019730,91.019051 220.440231,93.483246 218.212524,96.184975 
	C212.118759,98.871574 206.052475,101.624435 199.902985,104.176788 
	C198.926300,104.582161 197.575104,104.085236 196.839172,103.440269 
	C197.197189,102.555611 197.555206,101.670952 198.537811,100.406563 
	C202.402756,98.994972 206.453751,97.941116 210.073685,96.058426 
	C212.962616,94.555939 215.326340,92.043594 218.374802,89.581825 
	C220.476959,84.573944 219.833252,82.949593 214.948700,80.859535 
	C213.918076,83.554955 212.887146,86.251198 211.217285,89.230019 
	C207.828522,90.822830 204.439758,92.415642 201.203903,93.234856 
	C201.372437,92.472603 201.540985,91.710350 202.046387,90.439728 
	C202.533401,88.621040 203.020432,86.802345 203.805984,84.343277 
	C203.813293,83.876793 203.820602,83.410309 204.165115,82.440857 
	C204.165787,81.283409 204.166458,80.125954 204.356995,78.174759 
	C203.986771,74.512535 203.398682,70.989929 198.809998,69.220581 
	C193.113968,65.446159 186.742233,65.920601 179.738235,66.098343 
	C178.850082,65.653648 177.991379,65.133003 177.069351,64.775742 
	C164.753815,60.003838 152.591675,59.255302 139.867676,66.123306 
	C136.723923,66.129669 133.524185,65.763672 130.448990,66.226067 
	C125.305077,66.999519 119.758621,67.345535 116.467888,73.265999 
	C115.973801,73.843513 115.479713,74.421028 114.345108,74.998558 
	C113.578720,75.285706 112.812340,75.572853 111.252441,76.021729 
	C104.994942,78.770874 98.514427,81.120979 92.575531,84.440186 
	C89.674782,86.061386 87.382545,89.417564 91.247475,93.639244 
	C92.438683,94.563454 93.629898,95.487663 95.272308,96.896942 
	C97.130959,97.726639 98.989609,98.556335 101.425941,99.763321 
	C103.954315,100.463280 106.482689,101.163231 109.718452,102.184929 
	C112.815216,102.714638 115.911987,103.244354 119.709885,103.975227 
	C121.391571,104.765663 123.073257,105.556107 124.841370,106.847641 
	C125.100822,107.266983 125.360275,107.686317 125.772415,108.809937 
	C126.622482,109.972198 127.438934,111.160881 128.328262,112.292282 
	C132.974747,118.203590 136.499954,118.144318 141.954407,112.010017 
	C143.791595,112.111946 145.628769,112.213867 147.756958,112.956039 
	C150.024200,116.000389 152.036209,119.285797 154.624878,122.026558 
	C157.691269,125.273102 161.709381,125.529655 164.769775,122.314896 
	C167.644424,119.295227 169.638687,115.437454 172.045670,112.025146 
	C172.045670,112.025146 171.971222,112.056488 172.256027,111.645302 
	C172.324951,111.493492 172.393890,111.341682 173.229401,111.249962 
	C175.350967,112.058945 177.890289,112.381149 179.511841,113.772758 
	C183.563538,117.249886 186.801636,117.996109 189.738281,113.968742 
	C193.247040,109.156799 197.922562,108.073341 203.117645,106.693657 
	C211.198456,104.547569 219.696869,102.910675 226.372147,96.042534 
	C227.322052,92.997307 228.271942,89.952087 229.207123,86.172096 
	C227.580032,80.849541 224.005783,77.903900 219.372345,77.051300 
	C220.871811,80.664246 222.384857,84.309967 223.599228,88.554855 
M174.986938,55.641911 
	C175.819199,56.834972 176.651459,58.028038 177.833206,59.861965 
	C183.669205,64.355759 187.808029,64.098969 193.230560,58.539654 
	C193.793335,57.352741 194.356094,56.165825 195.356003,54.495491 
	C195.480530,53.657055 195.605057,52.818615 195.939651,51.192261 
	C195.830643,50.122177 195.721619,49.052097 195.672821,47.345783 
	C195.135437,46.221600 194.598053,45.097416 193.923660,43.295509 
	C187.987732,35.987484 180.752121,36.249485 175.320312,44.410793 
	C175.002045,45.551308 174.683792,46.691822 174.078934,48.473274 
	C174.106415,49.642658 174.133911,50.812046 174.063446,52.626938 
	C174.375092,53.418530 174.686737,54.210125 174.986938,55.641911 
M126.243767,58.674576 
	C133.603653,64.725929 138.212265,64.540138 143.431976,57.440140 
	C144.102905,55.988396 144.773834,54.536652 145.808014,52.382816 
	C145.825424,50.227600 145.842834,48.072384 146.426285,46.102802 
	C146.786682,46.784851 147.147095,47.466896 147.689880,48.850060 
	C150.218582,54.346283 154.450104,57.429573 160.554184,57.063438 
	C166.311661,56.718094 170.465408,53.815536 172.752121,47.548092 
	C173.034073,45.362064 173.316040,43.176033 173.691406,40.284439 
	C173.123047,38.523983 172.554672,36.763527 171.917938,34.305473 
	C163.765427,23.579716 152.625717,23.886799 147.376251,35.454887 
	C147.004471,37.299782 146.632706,39.144676 146.087723,41.815628 
	C146.038345,43.211357 145.988968,44.607086 145.400162,46.043095 
	C145.061829,45.624466 144.723495,45.205833 144.239258,44.089005 
	C142.171326,39.653976 138.575882,37.747257 133.838791,38.218643 
	C129.589905,38.641453 126.498871,40.813244 124.804344,45.782333 
	C124.826859,48.864388 124.849365,51.946445 124.948830,55.679054 
	C125.331444,56.455456 125.714058,57.231857 126.243767,58.674576 
M131.994797,178.215973 
	C132.883621,176.304352 133.772430,174.392746 134.662796,172.481842 
	C127.768654,169.493622 125.564186,170.765076 125.578232,177.721985 
	C125.579887,178.545273 125.642761,179.373184 125.577583,180.191010 
	C125.317749,183.451279 127.488457,183.466446 129.769287,183.401382 
	C132.008377,183.337463 134.781723,183.988831 133.930923,179.551346 
	C133.259140,179.364731 132.587357,179.178131 131.994797,178.215973 
M182.159134,172.328674 
	C181.428589,172.179901 180.698044,172.031143 179.105103,171.688492 
	C176.911545,171.753265 173.888718,170.816315 174.198975,174.603561 
	C174.433090,177.461304 175.354233,180.262772 175.969574,183.089279 
	C178.660126,182.256378 182.096832,182.167709 183.855103,180.404922 
	C186.126297,178.127838 185.457138,174.847290 182.159134,172.328674 
M216.172989,143.851166 
	C213.060669,143.644592 209.943069,143.258057 206.839523,143.349457 
	C205.992218,143.374420 204.506836,144.808411 204.473343,145.642334 
	C204.257309,151.019882 204.362808,156.410370 204.362808,161.930511 
	C206.202271,162.114029 207.327255,162.302002 208.455276,162.322556 
	C210.604935,162.361755 212.774368,162.475800 214.902954,162.250565 
	C218.494171,161.870544 220.230133,158.978439 219.463974,155.495255 
	C219.003906,153.403656 219.207062,151.167023 218.755615,149.072403 
	C218.395599,147.402039 217.496277,145.847900 216.172989,143.851166 
M129.886749,151.847885 
	C128.224182,145.537064 125.364532,142.948792 119.815681,142.876266 
	C115.063690,142.814163 111.384766,144.612152 109.777466,149.359528 
	C108.456337,153.261658 109.018753,156.964249 111.994820,159.938675 
	C115.088020,163.030182 118.905754,163.661789 123.017059,162.359756 
	C127.770042,160.854477 129.701920,157.290253 129.886749,151.847885 
M102.015182,144.956543 
	C96.463470,141.568954 90.140594,142.408508 86.988594,146.951797 
	C84.004997,151.252335 84.976898,157.752609 89.068748,160.864441 
	C93.549759,164.272263 99.600578,163.592926 103.923210,158.155106 
	C101.420624,157.913422 99.641380,157.829437 97.893555,157.549362 
	C95.936707,157.235840 93.097778,157.362595 92.293633,156.177505 
	C91.243401,154.629761 91.067543,151.596649 91.927864,149.932922 
	C92.590393,148.651703 95.560555,147.731369 97.274376,148.019577 
	C99.901772,148.461441 101.450371,148.174667 102.015182,144.956543 
M195.667282,156.292786 
	C194.427490,152.697495 193.357147,149.028473 191.844421,145.551926 
	C191.392014,144.512207 189.729248,143.469391 188.573273,143.413406 
	C187.399185,143.356552 185.454544,144.234985 185.076981,145.189972 
	C182.968781,150.522247 181.233505,156.001968 179.370758,161.431290 
	C179.766052,161.884659 180.161346,162.338028 180.556641,162.791397 
	C182.224228,161.847244 184.177444,161.192429 185.493927,159.892670 
	C187.587051,157.826141 189.112000,157.750595 191.230957,159.843155 
	C192.561768,161.157394 194.479553,161.877274 196.134003,162.863800 
	C196.508499,162.436462 196.882980,162.009140 197.257477,161.581802 
	C196.807266,160.052475 196.357056,158.523163 195.667282,156.292786 
M164.260727,146.219360 
	C163.319458,145.233734 162.378174,144.248108 161.436890,143.262497 
	C160.603790,144.200760 159.108643,145.100327 159.051178,146.083893 
	C158.790649,150.542770 158.784271,155.034500 159.053223,159.492264 
	C159.112320,160.471817 160.598114,162.068222 161.548904,162.163513 
	C164.829514,162.492386 168.173172,162.413696 171.471420,162.183395 
	C172.259323,162.128387 172.964203,160.884338 173.707260,160.187164 
	C172.961227,159.500748 172.275574,158.322861 171.457550,158.222366 
	C169.223999,157.947952 166.934647,158.127930 164.262848,158.127930 
	C164.262848,153.999741 164.262848,150.542191 164.260727,146.219360 
M137.585831,155.298538 
	C137.585831,157.531982 137.585831,159.765427 137.585831,162.302109 
	C141.795868,162.302109 145.121704,162.487122 148.408722,162.210602 
	C149.714691,162.100723 150.934616,160.968033 152.193726,160.300995 
	C151.004517,159.567764 149.897552,158.508881 148.605576,158.182617 
	C146.939087,157.761765 145.124542,157.927170 143.019501,157.822479 
	C143.019501,152.848190 143.019501,148.399765 143.019501,143.974030 
	C139.170105,142.480850 137.261642,143.175735 137.558151,147.388382 
	C137.721130,149.703888 137.586395,152.040359 137.585831,155.298538 
M106.659920,172.347092 
	C106.525734,174.143753 106.223778,175.948044 106.305244,177.734879 
	C106.384453,179.472137 106.504501,182.482925 107.221786,182.678528 
	C109.446602,183.285217 112.256744,183.466629 114.271408,182.555908 
	C115.773079,181.877090 117.278458,179.190582 117.170387,177.501297 
	C117.048378,175.594070 115.525528,173.062057 113.871567,172.161575 
	C112.101311,171.197784 109.468407,171.818451 106.659920,172.347092 
M243.619156,175.795212 
	C243.619156,178.187424 243.619156,180.579620 243.619156,182.739426 
	C247.174652,182.739426 249.783325,182.739426 252.251312,182.739426 
	C252.580765,180.704010 253.447693,178.574768 253.083099,176.682861 
	C252.726181,174.830887 251.416199,172.146973 249.985901,171.745102 
	C247.577667,171.068405 243.580597,169.747253 243.619156,175.795212 
M93.124435,183.496887 
	C97.784958,181.745026 99.586685,178.235428 97.739456,174.507248 
	C96.204720,171.409744 91.695473,169.786789 88.887154,172.050095 
	C87.156830,173.444626 85.709427,176.328888 85.743683,178.519119 
	C85.801453,182.212219 88.781769,183.655960 93.124435,183.496887 
M222.761566,177.470367 
	C223.171249,178.696838 223.312561,180.120163 224.040802,181.112991 
	C226.253815,184.129974 229.748978,184.604294 232.332977,182.692276 
	C234.116180,181.372818 235.370026,178.059998 235.236053,175.731445 
	C235.042267,172.363510 232.013672,170.940964 228.697342,171.162842 
	C225.304062,171.389893 223.337280,173.388977 222.761566,177.470367 
M71.144173,171.409958 
	C69.677376,173.570511 67.240662,175.650909 67.053383,177.917221 
	C66.905907,179.701767 69.160843,182.518250 71.037437,183.384796 
	C72.670898,184.139069 75.268120,182.806229 77.439468,182.395645 
	C77.352135,181.758347 77.264793,181.121063 77.177460,180.483765 
	C75.327705,180.483765 73.477951,180.483765 71.853378,180.483765 
	C67.552467,173.423309 75.584908,175.683807 78.040672,172.320801 
	C75.423210,171.855606 73.646858,171.539886 71.144173,171.409958 
M205.542984,174.008636 
	C206.454285,176.046753 207.299240,178.118317 208.302429,180.110153 
	C208.880707,181.258270 209.714783,182.277542 210.433731,183.354813 
	C211.058029,182.351578 211.885406,181.419327 212.265991,180.330872 
	C213.164383,177.761520 213.850052,175.117798 214.674057,172.327042 
	C211.252609,170.383438 207.497620,170.630508 205.542984,174.008636 
M196.971939,177.429413 
	C196.963257,176.280396 197.193634,175.058411 196.872147,174.004852 
	C196.602768,173.122131 195.688965,172.436050 195.060501,171.662903 
	C194.509491,172.358978 193.544540,173.020645 193.483261,173.757462 
	C193.279922,176.202103 193.276550,178.684128 193.478088,181.128601 
	C193.535934,181.830307 194.449860,182.635773 195.170563,183.015900 
	C195.430115,183.152832 196.616272,182.275772 196.778107,181.694092 
	C197.077011,180.619751 196.931900,179.421890 196.971939,177.429413 
z"/>
<path fill="#40DA95" opacity="1.000000" stroke="none" 
	d="
M140.745407,66.237320 
	C152.591675,59.255302 164.753815,60.003838 177.069351,64.775742 
	C177.991379,65.133003 178.850082,65.653648 180.216965,66.515656 
	C181.486649,68.611725 182.277603,70.290482 182.595123,71.977631 
	C169.313065,71.990135 156.502609,72.102196 143.697739,71.885727 
	C141.702255,71.852005 139.732132,70.320137 137.805939,69.183685 
	C138.822861,68.003326 139.784134,67.120323 140.745407,66.237320 
z"/>
<path fill="#D0D9DA" opacity="1.000000" stroke="none" 
	d="
M216.504669,144.046661 
	C217.496277,145.847900 218.395599,147.402039 218.755615,149.072403 
	C219.207062,151.167023 219.003906,153.403656 219.463974,155.495255 
	C220.230133,158.978439 218.494171,161.870544 214.902954,162.250565 
	C212.774368,162.475800 210.604935,162.361755 208.455276,162.322556 
	C207.327255,162.302002 206.202271,162.114029 204.362808,161.930511 
	C204.362808,156.410370 204.257309,151.019882 204.473343,145.642334 
	C204.506836,144.808411 205.992218,143.374420 206.839523,143.349457 
	C209.943069,143.258057 213.060669,143.644592 216.504669,144.046661 
z"/>
<path fill="#E97024" opacity="1.000000" stroke="none" 
	d="
M225.814270,96.311180 
	C219.696869,102.910675 211.198456,104.547569 203.117645,106.693657 
	C197.922562,108.073341 193.247040,109.156799 189.738281,113.968742 
	C186.801636,117.996109 183.563538,117.249886 179.511841,113.772758 
	C177.890289,112.381149 175.350967,112.058945 172.754562,111.303192 
	C172.090683,111.555870 171.987854,111.789223 171.971222,112.056488 
	C171.971222,112.056488 172.045670,112.025146 171.566559,112.002617 
	C166.091568,111.727882 161.095718,111.475685 156.096039,110.950867 
	C156.086563,110.496185 156.080917,110.314117 156.532806,110.072845 
	C161.113617,110.004677 165.287018,110.374428 169.340515,109.838097 
	C171.603378,109.538681 173.667038,107.733826 176.106140,106.917175 
	C183.471252,108.705566 190.052094,107.087929 196.397064,104.005470 
	C197.575104,104.085236 198.926300,104.582161 199.902985,104.176788 
	C206.052475,101.624435 212.118759,98.871574 219.029816,96.079239 
	C221.836166,96.086060 223.825211,96.198624 225.814270,96.311180 
z"/>
<path fill="#D6E0E0" opacity="1.000000" stroke="none" 
	d="
M129.910522,152.203720 
	C129.701920,157.290253 127.770042,160.854477 123.017059,162.359756 
	C118.905754,163.661789 115.088020,163.030182 111.994820,159.938675 
	C109.018753,156.964249 108.456337,153.261658 109.777466,149.359528 
	C111.384766,144.612152 115.063690,142.814163 119.815681,142.876266 
	C125.364532,142.948792 128.224182,145.537064 129.910522,152.203720 
M116.233971,148.722656 
	C113.785774,151.568970 113.637466,154.685196 116.544678,156.935745 
	C117.820206,157.923172 121.517532,158.046661 122.111687,157.183426 
	C123.390732,155.325150 124.289909,152.294647 123.669838,150.252396 
	C122.727882,147.150009 119.817131,146.488129 116.233971,148.722656 
z"/>
<path fill="#BB68CB" opacity="1.000000" stroke="none" 
	d="
M217.923187,89.979500 
	C215.326340,92.043594 212.962616,94.555939 210.073685,96.058426 
	C206.453751,97.941116 202.402756,98.994972 197.808853,100.616730 
	C190.067337,102.196396 183.054794,103.565910 175.574615,104.908783 
	C171.045319,105.059418 166.983643,105.236687 163.004089,105.044731 
	C164.729462,103.164360 166.372681,101.653214 168.449371,100.085083 
	C172.229294,99.646461 175.575775,99.264824 179.349518,98.929001 
	C186.868195,97.319351 193.959595,95.663902 201.050995,94.008453 
	C204.439758,92.415642 207.828522,90.822830 211.932587,89.106773 
	C214.406311,89.315521 216.164749,89.647507 217.923187,89.979500 
z"/>
<path fill="#D0D9DA" opacity="1.000000" stroke="none" 
	d="
M102.126717,145.258743 
	C101.450371,148.174667 99.901772,148.461441 97.274376,148.019577 
	C95.560555,147.731369 92.590393,148.651703 91.927864,149.932922 
	C91.067543,151.596649 91.243401,154.629761 92.293633,156.177505 
	C93.097778,157.362595 95.936707,157.235840 97.893555,157.549362 
	C99.641380,157.829437 101.420624,157.913422 103.923210,158.155106 
	C99.600578,163.592926 93.549759,164.272263 89.068748,160.864441 
	C84.976898,157.752609 84.004997,151.252335 86.988594,146.951797 
	C90.140594,142.408508 96.463470,141.568954 102.126717,145.258743 
z"/>
<path fill="#DBE4E3" opacity="1.000000" stroke="none" 
	d="
M195.787064,156.643311 
	C196.357056,158.523163 196.807266,160.052475 197.257477,161.581802 
	C196.882980,162.009140 196.508499,162.436462 196.134003,162.863800 
	C194.479553,161.877274 192.561768,161.157394 191.230957,159.843155 
	C189.112000,157.750595 187.587051,157.826141 185.493927,159.892670 
	C184.177444,161.192429 182.224228,161.847244 180.556641,162.791397 
	C180.161346,162.338028 179.766052,161.884659 179.370758,161.431290 
	C181.233505,156.001968 182.968781,150.522247 185.076981,145.189972 
	C185.454544,144.234985 187.399185,143.356552 188.573273,143.413406 
	C189.729248,143.469391 191.392014,144.512207 191.844421,145.551926 
	C193.357147,149.028473 194.427490,152.697495 195.787064,156.643311 
z"/>
<path fill="#3DB1AD" opacity="1.000000" stroke="none" 
	d="
M156.099854,111.223480 
	C161.095718,111.475685 166.091568,111.727882 171.553879,111.964264 
	C169.638687,115.437454 167.644424,119.295227 164.769775,122.314896 
	C161.709381,125.529655 157.691269,125.273102 154.624878,122.026558 
	C152.036209,119.285797 150.024200,116.000389 148.082169,112.582306 
	C150.971542,111.880219 153.535690,111.551849 156.099854,111.223480 
z"/>
<path fill="#3BB7AC" opacity="1.000000" stroke="none" 
	d="
M172.278595,48.087715 
	C170.465408,53.815536 166.311661,56.718094 160.554184,57.063438 
	C154.450104,57.429573 150.218582,54.346283 148.048050,48.414337 
	C156.363678,48.014980 164.321136,48.051350 172.278595,48.087715 
z"/>
<path fill="#D9E2E2" opacity="1.000000" stroke="none" 
	d="
M164.261780,146.652008 
	C164.262848,150.542191 164.262848,153.999741 164.262848,158.127930 
	C166.934647,158.127930 169.223999,157.947952 171.457550,158.222366 
	C172.275574,158.322861 172.961227,159.500748 173.707275,160.187164 
	C172.964203,160.884338 172.259323,162.128387 171.471420,162.183395 
	C168.173172,162.413696 164.829514,162.492386 161.548904,162.163513 
	C160.598114,162.068222 159.112320,160.471817 159.053223,159.492264 
	C158.784271,155.034500 158.790649,150.542770 159.051178,146.083893 
	C159.108643,145.100327 160.603790,144.200760 161.436890,143.262497 
	C162.378174,144.248108 163.319458,145.233734 164.261780,146.652008 
z"/>
<path fill="#D9E2E2" opacity="1.000000" stroke="none" 
	d="
M137.585876,154.832947 
	C137.586395,152.040359 137.721130,149.703888 137.558151,147.388382 
	C137.261642,143.175735 139.170105,142.480850 143.019501,143.974030 
	C143.019501,148.399765 143.019501,152.848190 143.019501,157.822479 
	C145.124542,157.927170 146.939087,157.761765 148.605576,158.182617 
	C149.897552,158.508881 151.004517,159.567764 152.193726,160.300995 
	C150.934616,160.968033 149.714691,162.100723 148.408722,162.210602 
	C145.121704,162.487122 141.795868,162.302109 137.585831,162.302109 
	C137.585831,159.765427 137.585831,157.531982 137.585876,154.832947 
z"/>
<path fill="#A860CB" opacity="1.000000" stroke="none" 
	d="
M125.619736,108.105652 
	C125.360275,107.686317 125.100822,107.266983 125.068367,106.309204 
	C128.256531,104.836655 131.278381,104.056633 134.160324,102.921425 
	C136.624695,101.950706 138.928604,100.572609 141.739929,99.459915 
	C147.119522,99.815102 152.062668,100.085060 156.978607,100.683372 
	C155.632050,102.639076 154.312714,104.266426 152.562683,105.951820 
	C149.448441,106.322800 146.764877,106.635742 143.944244,107.226364 
	C143.533142,108.274338 143.259125,109.044632 142.663025,109.880188 
	C141.905884,109.995476 141.470810,110.045509 140.730423,109.824959 
	C135.489990,109.071465 130.554871,108.588562 125.619736,108.105652 
z"/>
<path fill="#7544BD" opacity="1.000000" stroke="none" 
	d="
M144.385162,44.787201 
	C144.723495,45.205833 145.061829,45.624466 145.639771,46.012314 
	C145.879364,45.981529 145.860260,45.917168 145.860260,45.917168 
	C145.842834,48.072384 145.825424,50.227600 145.125977,52.709198 
	C142.321106,53.019596 140.171783,52.782661 138.080963,53.033401 
	C133.661728,53.563381 129.273071,54.348209 124.871872,55.028500 
	C124.849365,51.946445 124.826859,48.864388 125.454620,45.419319 
	C132.198318,44.966602 138.291733,44.876900 144.385162,44.787201 
z"/>
<path fill="#834CC3" opacity="1.000000" stroke="none" 
	d="
M119.008751,103.774063 
	C115.911987,103.244354 112.815216,102.714638 109.436043,101.679565 
	C110.874802,100.156746 112.653954,99.223793 114.298813,98.095146 
	C115.618553,97.189583 116.775406,96.046654 118.250870,94.856598 
	C118.627632,94.148407 118.758072,93.592690 119.280014,92.870468 
	C125.750175,92.138321 131.828827,91.572670 138.051788,91.193375 
	C138.358688,91.656456 138.576721,91.878746 138.866821,92.395065 
	C138.950058,93.434349 139.016708,94.125183 138.791306,95.092468 
	C132.837112,97.144348 127.137535,98.813744 121.545784,100.788490 
	C120.481407,101.164383 119.843452,102.747787 119.008751,103.774063 
z"/>
<path fill="#3DC4A5" opacity="1.000000" stroke="none" 
	d="
M172.515350,47.817905 
	C164.321136,48.051350 156.363678,48.014980 147.956848,48.063774 
	C147.147095,47.466896 146.786682,46.784851 146.143280,46.009987 
	C145.860260,45.917168 145.879364,45.981529 145.909485,45.992172 
	C145.988968,44.607086 146.038345,43.211357 146.625763,41.404331 
	C155.975189,40.992023 164.786591,40.991013 173.597992,40.990005 
	C173.316040,43.176033 173.034073,45.362064 172.515350,47.817905 
z"/>
<path fill="#3FD597" opacity="1.000000" stroke="none" 
	d="
M147.888123,34.967892 
	C152.625717,23.886799 163.765427,23.579716 171.484406,34.653572 
	C163.329941,34.990414 155.609039,34.979153 147.888123,34.967892 
z"/>
<path fill="#40D0A3" opacity="1.000000" stroke="none" 
	d="
M147.632187,35.211388 
	C155.609039,34.979153 163.329941,34.990414 171.518585,35.002373 
	C172.554672,36.763527 173.123047,38.523983 173.644699,40.637222 
	C164.786591,40.991013 155.975189,40.992023 146.712357,40.991302 
	C146.632706,39.144676 147.004471,37.299782 147.632187,35.211388 
z"/>
<path fill="#0C0831" opacity="1.000000" stroke="none" 
	d="
M118.888504,93.036972 
	C118.758072,93.592690 118.627632,94.148407 117.978745,94.652878 
	C115.984734,94.047386 114.509178,93.493126 112.813339,92.685974 
	C110.831596,91.408226 109.070152,90.383369 107.224838,89.078453 
	C106.525604,87.817635 105.910225,86.836884 105.308601,85.500885 
	C107.563553,82.050430 109.804749,78.955215 112.045952,75.859993 
	C112.812340,75.572853 113.578720,75.285706 114.819443,75.252663 
	C115.399620,75.674202 115.505455,75.841644 115.479568,76.305481 
	C115.389801,77.438133 115.431747,78.274414 115.482254,79.523483 
	C115.691696,81.293236 115.892578,82.650200 116.070786,84.355499 
	C116.397903,85.803764 116.747711,86.903702 117.071625,88.350082 
	C117.659996,90.143341 118.274254,91.590157 118.888504,93.036972 
z"/>
<path fill="#F29B40" opacity="1.000000" stroke="none" 
	d="
M201.127441,93.621658 
	C193.959595,95.663902 186.868195,97.319351 179.409668,98.577461 
	C179.671661,96.120949 180.300781,94.061775 181.120880,91.780136 
	C181.589752,91.042633 181.867630,90.527588 182.604111,90.010635 
	C189.278320,90.321854 195.493912,90.634979 201.709518,90.948105 
	C201.540985,91.710350 201.372437,92.472603 201.127441,93.621658 
z"/>
<path fill="#33AB7E" opacity="1.000000" stroke="none" 
	d="
M106.935974,172.047333 
	C109.468407,171.818451 112.101311,171.197784 113.871567,172.161575 
	C115.525528,173.062057 117.048378,175.594070 117.170387,177.501297 
	C117.278458,179.190582 115.773079,181.877090 114.271408,182.555908 
	C112.256744,183.466629 109.446602,183.285217 107.221786,182.678528 
	C106.504501,182.482925 106.384453,179.472137 106.305244,177.734879 
	C106.223778,175.948044 106.525734,174.143753 106.935974,172.047333 
z"/>
<path fill="#F4C556" opacity="1.000000" stroke="none" 
	d="
M199.042511,69.882187 
	C203.398682,70.989929 203.986771,74.512535 203.970123,78.572311 
	C203.388809,78.979095 203.194397,78.988327 202.839767,78.842896 
	C196.623077,78.794830 190.566620,78.901428 184.406158,78.583633 
	C184.132950,76.132034 183.963730,74.104828 184.273071,72.056030 
	C188.214981,72.019386 191.695206,72.196121 195.133270,71.893669 
	C196.484879,71.774780 197.742233,70.584541 199.042511,69.882187 
z"/>
<path fill="#3A29A7" opacity="1.000000" stroke="none" 
	d="
M140.306549,66.180313 
	C139.784134,67.120323 138.822861,68.003326 137.563156,69.424606 
	C136.749176,70.966179 136.233643,71.969475 135.318726,73.002747 
	C129.006836,73.083122 123.094315,73.133514 117.121353,73.124207 
	C117.060905,73.064499 116.939346,72.945747 116.939346,72.945747 
	C119.758621,67.345535 125.305077,66.999519 130.448990,66.226067 
	C133.524185,65.763672 136.723923,66.129669 140.306549,66.180313 
z"/>
<path fill="#37B885" opacity="1.000000" stroke="none" 
	d="
M243.622009,175.379791 
	C243.580597,169.747253 247.577667,171.068405 249.985901,171.745102 
	C251.416199,172.146973 252.726181,174.830887 253.083099,176.682861 
	C253.447693,178.574768 252.580765,180.704010 252.251312,182.739426 
	C249.783325,182.739426 247.174652,182.739426 243.619156,182.739426 
	C243.619156,180.579620 243.619156,178.187424 243.622009,175.379791 
z"/>
<path fill="#9154C6" opacity="1.000000" stroke="none" 
	d="
M119.359314,103.874649 
	C119.843452,102.747787 120.481407,101.164383 121.545784,100.788490 
	C127.137535,98.813744 132.837112,97.144348 139.007843,95.338516 
	C140.112122,96.663651 140.707809,98.019173 141.303482,99.374695 
	C138.928604,100.572609 136.624695,101.950706 134.160324,102.921425 
	C131.278381,104.056633 128.256531,104.836655 125.025154,106.058655 
	C123.073257,105.556107 121.391571,104.765663 119.359314,103.874649 
z"/>
<path fill="#3A29A7" opacity="1.000000" stroke="none" 
	d="
M111.649200,75.940857 
	C109.804749,78.955215 107.563553,82.050430 104.873947,85.536774 
	C101.252106,86.617882 98.097473,87.417397 94.899788,87.965981 
	C91.912827,88.478409 90.721436,90.165916 90.942039,93.060326 
	C87.382545,89.417564 89.674782,86.061386 92.575531,84.440186 
	C98.514427,81.120979 104.994942,78.770874 111.649200,75.940857 
z"/>
<path fill="#F1A744" opacity="1.000000" stroke="none" 
	d="
M201.877960,90.693916 
	C195.493912,90.634979 189.278320,90.321854 182.605896,89.658432 
	C182.731766,87.542709 183.314468,85.777267 184.371277,84.010681 
	C191.066055,84.334251 197.286758,84.658951 203.507446,84.983658 
	C203.020432,86.802345 202.533401,88.621040 201.877960,90.693916 
z"/>
<path fill="#35B482" opacity="1.000000" stroke="none" 
	d="
M92.746086,183.527679 
	C88.781769,183.655960 85.801453,182.212219 85.743683,178.519119 
	C85.709427,176.328888 87.156830,173.444626 88.887154,172.050095 
	C91.695473,169.786789 96.204720,171.409744 97.739456,174.507248 
	C99.586685,178.235428 97.784958,181.745026 92.746086,183.527679 
M89.161522,178.125000 
	C90.376755,178.881302 91.591995,179.637604 92.807220,180.393921 
	C93.438255,179.193024 94.573547,177.974915 94.533340,176.796951 
	C94.503662,175.927460 92.940689,175.110291 92.060875,174.269821 
	C91.066414,175.310898 90.071953,176.351959 89.161522,178.125000 
z"/>
<path fill="#35B482" opacity="1.000000" stroke="none" 
	d="
M222.778152,177.114349 
	C223.337280,173.388977 225.304062,171.389893 228.697342,171.162842 
	C232.013672,170.940964 235.042267,172.363510 235.236053,175.731445 
	C235.370026,178.059998 234.116180,181.372818 232.332977,182.692276 
	C229.748978,184.604294 226.253815,184.129974 224.040802,181.112991 
	C223.312561,180.120163 223.171249,178.696838 222.778152,177.114349 
M231.758728,175.998184 
	C230.412094,175.589386 229.065460,175.180588 227.718842,174.771805 
	C227.349380,176.081009 226.608841,177.433060 226.753143,178.682938 
	C226.836365,179.404022 228.348755,179.960114 229.217880,180.590485 
	C230.132919,179.297470 231.047943,178.004456 231.758728,175.998184 
z"/>
<path fill="#39C38A" opacity="1.000000" stroke="none" 
	d="
M182.403595,172.762558 
	C185.457138,174.847290 186.126297,178.127838 183.855103,180.404922 
	C182.096832,182.167709 178.660126,182.256378 175.969574,183.089294 
	C175.354233,180.262772 174.433090,177.461304 174.198975,174.603561 
	C173.888718,170.816315 176.911545,171.753265 179.769104,172.037262 
	C181.089920,172.511520 181.746765,172.637039 182.403595,172.762558 
z"/>
<path fill="#452CAA" opacity="1.000000" stroke="none" 
	d="
M144.312210,44.438103 
	C138.291733,44.876900 132.198318,44.966602 125.651558,45.072727 
	C126.498871,40.813244 129.589905,38.641453 133.838791,38.218643 
	C138.575882,37.747257 142.171326,39.653976 144.312210,44.438103 
z"/>
<path fill="#F6B74C" opacity="1.000000" stroke="none" 
	d="
M203.656708,84.663467 
	C197.286758,84.658951 191.066055,84.334251 184.345978,83.634125 
	C183.845123,82.507568 183.843643,81.756439 183.967484,80.676971 
	C184.231918,79.901772 184.371033,79.454895 184.510162,79.008026 
	C190.566620,78.901428 196.623077,78.794830 202.842545,79.192535 
	C203.279663,80.779167 203.553787,81.861496 203.827911,82.943825 
	C203.820602,83.410309 203.813293,83.876793 203.656708,84.663467 
z"/>
<path fill="#35B482" opacity="1.000000" stroke="none" 
	d="
M133.956207,180.079269 
	C134.781723,183.988831 132.008377,183.337463 129.769287,183.401382 
	C127.488457,183.466446 125.317749,183.451279 125.577583,180.191010 
	C125.642761,179.373184 125.579887,178.545273 125.578232,177.721985 
	C125.564186,170.765076 127.768654,169.493622 134.662018,172.481476 
	C133.772430,174.392746 132.883621,176.304352 131.685425,178.641708 
	C132.236099,179.404724 133.096161,179.741989 133.956207,180.079269 
z"/>
<path fill="#35B482" opacity="1.000000" stroke="none" 
	d="
M71.507339,171.317078 
	C73.646858,171.539886 75.423210,171.855606 78.040672,172.320801 
	C75.584908,175.683807 67.552467,173.423309 71.853378,180.483765 
	C73.477951,180.483765 75.327705,180.483765 77.177460,180.483765 
	C77.264793,181.121063 77.352135,181.758347 77.439468,182.395645 
	C75.268120,182.806229 72.670898,184.139069 71.037437,183.384796 
	C69.160843,182.518250 66.905907,179.701767 67.053383,177.917221 
	C67.240662,175.650909 69.677376,173.570511 71.507339,171.317078 
z"/>
<path fill="#B463C5" opacity="1.000000" stroke="none" 
	d="
M125.696075,108.457794 
	C130.554871,108.588562 135.489990,109.071465 140.652863,110.061859 
	C140.970245,111.079254 141.059860,111.589165 141.149490,112.099083 
	C136.499954,118.144318 132.974747,118.203590 128.328262,112.292282 
	C127.438934,111.160881 126.622482,109.972198 125.696075,108.457794 
z"/>
<path fill="#9D57C9" opacity="1.000000" stroke="none" 
	d="
M124.910355,55.353775 
	C129.273071,54.348209 133.661728,53.563381 138.080963,53.033401 
	C140.171783,52.782661 142.321106,53.019596 144.944336,53.060246 
	C144.773834,54.536652 144.102905,55.988396 142.752762,57.718548 
	C136.747925,58.000725 131.422302,58.004490 126.096672,58.008255 
	C125.714058,57.231857 125.331444,56.455456 124.910355,55.353775 
z"/>
<path fill="#EAC75A" opacity="1.000000" stroke="none" 
	d="
M198.926254,69.551384 
	C197.742233,70.584541 196.484879,71.774780 195.133270,71.893669 
	C191.695206,72.196121 188.214981,72.019386 184.091248,72.031242 
	C183.430878,72.028038 183.068558,71.969246 183.068573,71.969238 
	C182.277603,70.290482 181.486649,68.611725 180.541382,66.611885 
	C186.742233,65.920601 193.113968,65.446159 198.926254,69.551384 
z"/>
<path fill="#5535B5" opacity="1.000000" stroke="none" 
	d="
M91.094757,93.349785 
	C90.721436,90.165916 91.912827,88.478409 94.899788,87.965981 
	C98.097473,87.417397 101.252106,86.617882 104.860184,85.892014 
	C105.910225,86.836884 106.525604,87.817635 106.986786,89.427048 
	C105.036125,90.743942 103.141235,91.251625 101.467094,92.164276 
	C99.164268,93.419640 97.028465,94.981384 94.821106,96.411865 
	C93.629898,95.487663 92.438683,94.563454 91.094757,93.349785 
z"/>
<path fill="#F6A440" opacity="1.000000" stroke="none" 
	d="
M174.161392,51.981430 
	C174.133911,50.812046 174.106415,49.642658 174.732529,48.190895 
	C182.128281,47.933018 188.870453,47.957516 195.612610,47.982014 
	C195.721619,49.052097 195.830643,50.122177 195.383698,51.588490 
	C187.938965,51.983624 181.050186,51.982529 174.161392,51.981430 
z"/>
<path fill="#E6B953" opacity="1.000000" stroke="none" 
	d="
M175.866898,43.949348 
	C180.752121,36.249485 187.987732,35.987484 193.520325,43.641331 
	C187.366959,43.974548 181.616928,43.961948 175.866898,43.949348 
z"/>
<path fill="#F38232" opacity="1.000000" stroke="none" 
	d="
M176.042236,104.935425 
	C183.054794,103.565910 190.067337,102.196396 197.496552,100.806595 
	C197.555206,101.670952 197.197189,102.555611 196.618118,103.722870 
	C190.052094,107.087929 183.471252,108.705566 176.114502,106.635994 
	C175.905548,105.675148 175.973892,105.305283 176.042236,104.935425 
z"/>
<path fill="#30A078" opacity="1.000000" stroke="none" 
	d="
M205.357697,173.659790 
	C207.497620,170.630508 211.252609,170.383438 214.674057,172.327042 
	C213.850052,175.117798 213.164383,177.761520 212.265991,180.330872 
	C211.885406,181.419327 211.058029,182.351578 210.433716,183.354813 
	C209.714783,182.277542 208.880707,181.258270 208.302429,180.110153 
	C207.299240,178.118317 206.454285,176.046753 205.357697,173.659790 
z"/>
<path fill="#653DB9" opacity="1.000000" stroke="none" 
	d="
M95.046707,96.654404 
	C97.028465,94.981384 99.164268,93.419640 101.467094,92.164276 
	C103.141235,91.251625 105.036125,90.743942 107.070648,89.707108 
	C109.070152,90.383369 110.831596,91.408226 112.577011,92.955353 
	C110.620590,94.293648 108.626923,95.004616 106.754204,95.954132 
	C104.726746,96.982109 102.812103,98.232590 100.848259,99.386032 
	C98.989609,98.556335 97.130959,97.726639 95.046707,96.654404 
z"/>
<path fill="#F6B74C" opacity="1.000000" stroke="none" 
	d="
M175.593597,44.180069 
	C181.616928,43.961948 187.366959,43.974548 193.588837,43.980194 
	C194.598053,45.097416 195.135437,46.221600 195.642715,47.663898 
	C188.870453,47.957516 182.128281,47.933018 174.875824,47.870426 
	C174.683792,46.691822 175.002045,45.551308 175.593597,44.180069 
z"/>
<path fill="#7545BE" opacity="1.000000" stroke="none" 
	d="
M101.137100,99.574677 
	C102.812103,98.232590 104.726746,96.982109 106.754204,95.954132 
	C108.626923,95.004616 110.620590,94.293648 112.797302,93.208244 
	C114.509178,93.493126 115.984734,94.047386 117.732407,94.805351 
	C116.775406,96.046654 115.618553,97.189583 114.298813,98.095146 
	C112.653954,99.223793 110.874802,100.156746 109.082352,101.518692 
	C106.482689,101.163231 103.954315,100.463280 101.137100,99.574677 
z"/>
<path fill="#F38232" opacity="1.000000" stroke="none" 
	d="
M177.483704,59.221107 
	C176.651459,58.028038 175.819199,56.834972 175.461121,55.322144 
	C182.263153,54.994553 188.591019,54.986732 194.918869,54.978912 
	C194.356094,56.165825 193.793335,57.352741 192.511658,58.749722 
	C187.023056,59.046898 182.253387,59.134003 177.483704,59.221107 
z"/>
<path fill="#A860CB" opacity="1.000000" stroke="none" 
	d="
M126.170219,58.341415 
	C131.422302,58.004490 136.747925,58.000725 142.541702,57.997810 
	C138.212265,64.540138 133.603653,64.725929 126.170219,58.341415 
z"/>
<path fill="#F09237" opacity="1.000000" stroke="none" 
	d="
M195.137436,54.737202 
	C188.591019,54.986732 182.263153,54.994553 175.466843,55.002045 
	C174.686737,54.210125 174.375092,53.418530 174.112427,52.304184 
	C181.050186,51.982529 187.938965,51.983624 195.278656,51.982449 
	C195.605057,52.818615 195.480530,53.657055 195.137436,54.737202 
z"/>
<path fill="#DD7C2F" opacity="1.000000" stroke="none" 
	d="
M226.093201,96.176857 
	C223.825211,96.198624 221.836166,96.086060 219.353912,95.960464 
	C220.440231,93.483246 222.019730,91.019051 224.046768,88.392227 
	C226.070160,87.788681 227.645996,87.347771 229.221848,86.906860 
	C228.271942,89.952087 227.322052,92.997307 226.093201,96.176857 
z"/>
<path fill="#DE963F" opacity="1.000000" stroke="none" 
	d="
M229.214478,86.539474 
	C227.645996,87.347771 226.070160,87.788681 224.196106,88.092644 
	C222.384857,84.309967 220.871811,80.664246 219.372345,77.051300 
	C224.005783,77.903900 227.580032,80.849541 229.214478,86.539474 
z"/>
<path fill="#A860CB" opacity="1.000000" stroke="none" 
	d="
M218.148987,89.780663 
	C216.164749,89.647507 214.406311,89.315521 212.252045,88.965485 
	C212.887146,86.251198 213.918076,83.554955 214.948700,80.859535 
	C219.833252,82.949593 220.476959,84.573944 218.148987,89.780663 
z"/>
<path fill="#39C38A" opacity="1.000000" stroke="none" 
	d="
M196.971863,177.852448 
	C196.931900,179.421890 197.077011,180.619751 196.778107,181.694092 
	C196.616272,182.275772 195.430115,183.152832 195.170563,183.015900 
	C194.449860,182.635773 193.535934,181.830307 193.478088,181.128601 
	C193.276550,178.684128 193.279922,176.202103 193.483261,173.757462 
	C193.544540,173.020645 194.509491,172.358978 195.060516,171.662903 
	C195.688965,172.436050 196.602768,173.122131 196.872147,174.004852 
	C197.193634,175.058411 196.963257,176.280396 196.971863,177.852448 
z"/>
<path fill="#DE6C24" opacity="1.000000" stroke="none" 
	d="
M177.658447,59.541534 
	C182.253387,59.134003 187.023056,59.046898 192.239166,58.950123 
	C187.808029,64.098969 183.669205,64.355759 177.658447,59.541534 
z"/>
<path fill="#3FD597" opacity="1.000000" stroke="none" 
	d="
M161.173218,178.067795 
	C161.033600,179.098297 161.230301,180.403366 160.669617,181.090103 
	C159.961456,181.957489 158.333740,183.053787 157.633194,182.764893 
	C155.492020,181.881897 156.752274,173.434052 159.600616,172.404114 
	C160.452866,174.510956 160.813049,176.289383 161.173218,178.067795 
z"/>
<path fill="#DE963F" opacity="1.000000" stroke="none" 
	d="
M141.551941,112.054550 
	C141.059860,111.589165 140.970245,111.079254 140.958160,110.332443 
	C141.470810,110.045509 141.905884,109.995476 142.905640,109.882736 
	C143.848114,109.521019 144.225891,109.222008 144.914825,109.240173 
	C148.842407,109.748917 152.458832,109.940483 156.075272,110.132042 
	C156.080917,110.314117 156.086563,110.496185 156.096039,110.950867 
	C153.535690,111.551849 150.971542,111.880219 147.936676,112.262184 
	C145.628769,112.213867 143.791595,112.111946 141.551941,112.054550 
z"/>
<path fill="#37B885" opacity="1.000000" stroke="none" 
	d="
M161.543213,178.084686 
	C160.813049,176.289383 160.452866,174.510956 160.030670,172.457550 
	C161.525864,172.182556 163.083054,172.182556 165.338608,172.182556 
	C164.029648,174.444412 162.971420,176.272995 161.543213,178.084686 
z"/>
<path fill="#F1A744" opacity="1.000000" stroke="none" 
	d="
M203.996506,82.692337 
	C203.553787,81.861496 203.279663,80.779167 203.002777,79.347198 
	C203.194397,78.988327 203.388809,78.979095 203.875183,78.969185 
	C204.166458,80.125954 204.165787,81.283409 203.996506,82.692337 
z"/>
<path fill="#3A29A7" opacity="1.000000" stroke="none" 
	d="
M115.611298,76.009094 
	C115.505455,75.841644 115.399620,75.674202 115.139709,75.252655 
	C115.479713,74.421028 115.973801,73.843513 116.703613,73.105873 
	C116.939346,72.945747 117.060905,73.064499 117.065132,73.411156 
	C116.583336,74.508240 116.097313,75.258667 115.611298,76.009094 
z"/>
<path fill="#112B3B" opacity="1.000000" stroke="none" 
	d="
M133.943573,179.815308 
	C133.096161,179.741989 132.236099,179.404724 131.645813,179.029480 
	C132.587357,179.178131 133.259140,179.364731 133.943573,179.815308 
z"/>
<path fill="#30A078" opacity="1.000000" stroke="none" 
	d="
M182.281372,172.545624 
	C181.746765,172.637039 181.089920,172.511520 180.200287,172.134201 
	C180.698044,172.031143 181.428589,172.179901 182.281372,172.545624 
z"/>
<path fill="#3DB1AD" opacity="1.000000" stroke="none" 
	d="
M172.113617,111.850891 
	C171.987854,111.789223 172.090683,111.555870 172.371277,111.273140 
	C172.393890,111.341682 172.324951,111.493492 172.113617,111.850891 
z"/>
<path fill="#41D99D" opacity="1.000000" stroke="none" 
	d="
M182.595123,71.977638 
	C183.068558,71.969246 183.430878,72.028038 183.612701,72.052826 
	C183.963730,74.104828 184.132950,76.132034 184.406158,78.583633 
	C184.371033,79.454895 184.231918,79.901772 183.510040,80.675812 
	C167.298431,81.000687 151.669571,80.998405 135.934662,80.735611 
	C135.587494,79.976021 135.346375,79.476952 135.152771,78.601631 
	C135.372894,76.474510 135.545486,74.723640 135.718079,72.972763 
	C136.233643,71.969475 136.749176,70.966179 137.507492,69.721954 
	C139.732132,70.320137 141.702255,71.852005 143.697739,71.885727 
	C156.502609,72.102196 169.313065,71.990135 182.595123,71.977638 
z"/>
<path fill="#47B9AA" opacity="1.000000" stroke="none" 
	d="
M156.532806,110.072845 
	C152.458832,109.940483 148.842407,109.748917 144.933716,108.976715 
	C144.454742,107.913620 144.268021,107.431152 144.081314,106.948685 
	C146.764877,106.635742 149.448441,106.322800 152.998962,106.001060 
	C156.884613,105.799492 159.903275,105.606728 162.921951,105.413956 
	C166.983643,105.236687 171.045319,105.059418 175.574615,104.908783 
	C175.973892,105.305283 175.905548,105.675148 175.828842,106.326187 
	C173.667038,107.733826 171.603378,109.538681 169.340515,109.838097 
	C165.287018,110.374428 161.113617,110.004677 156.532806,110.072845 
z"/>
<path fill="#20203D" opacity="1.000000" stroke="none" 
	d="
M116.516495,148.492340 
	C119.817131,146.488129 122.727882,147.150009 123.669838,150.252396 
	C124.289909,152.294647 123.390732,155.325150 122.111687,157.183426 
	C121.517532,158.046661 117.820206,157.923172 116.544678,156.935745 
	C113.637466,154.685196 113.785774,151.568970 116.516495,148.492340 
z"/>
<path fill="#40C8A8" opacity="1.000000" stroke="none" 
	d="
M141.739929,99.459923 
	C140.707809,98.019173 140.112122,96.663651 139.299896,95.062073 
	C139.016708,94.125183 138.950058,93.434349 139.347916,92.382141 
	C153.518250,92.014725 167.224075,92.008667 180.929901,92.002609 
	C180.300781,94.061775 179.671661,96.120949 178.982391,98.531662 
	C175.575775,99.264824 172.229294,99.646461 167.993317,100.019730 
	C163.737823,100.125908 160.371826,100.240463 157.005814,100.355019 
	C152.062668,100.085060 147.119522,99.815102 141.739929,99.459923 
z"/>
<path fill="#AF67D0" opacity="1.000000" stroke="none" 
	d="
M156.978607,100.683372 
	C160.371826,100.240463 163.737823,100.125908 167.559875,100.076714 
	C166.372681,101.653214 164.729462,103.164360 163.004089,105.044739 
	C159.903275,105.606728 156.884613,105.799492 153.429657,105.943024 
	C154.312714,104.266426 155.632050,102.639076 156.978607,100.683372 
z"/>
<path fill="#B463C5" opacity="1.000000" stroke="none" 
	d="
M143.944244,107.226364 
	C144.268021,107.431152 144.454742,107.913620 144.622559,108.659538 
	C144.225891,109.222008 143.848114,109.521019 143.227707,109.817490 
	C143.259125,109.044632 143.533142,108.274338 143.944244,107.226364 
z"/>
<path fill="#40D0A3" opacity="1.000000" stroke="none" 
	d="
M181.120880,91.780136 
	C167.224075,92.008667 153.518250,92.014725 139.331329,92.033707 
	C138.576721,91.878746 138.358688,91.656456 138.042999,90.845581 
	C137.526657,89.211159 137.163452,88.110886 136.804932,86.692978 
	C136.523621,85.582146 136.237625,84.788933 135.974899,83.620667 
	C136.012344,82.495789 136.026535,81.745956 136.040710,80.996132 
	C151.669571,80.998405 167.298431,81.000687 183.384720,81.004135 
	C183.843643,81.756439 183.845123,82.507568 183.871887,83.635269 
	C183.314468,85.777267 182.731766,87.542709 182.147278,89.660339 
	C181.867630,90.527588 181.589752,91.042633 181.120880,91.780136 
z"/>
<path fill="#7545BE" opacity="1.000000" stroke="none" 
	d="
M136.800247,87.010612 
	C137.163452,88.110886 137.526657,89.211159 137.898682,90.659218 
	C131.828827,91.572670 125.750175,92.138321 119.280014,92.870468 
	C118.274254,91.590157 117.659996,90.143341 117.532631,88.349014 
	C124.279762,87.671204 130.540009,87.340912 136.800247,87.010612 
z"/>
<path fill="#4E33B6" opacity="1.000000" stroke="none" 
	d="
M135.318726,73.002747 
	C135.545486,74.723640 135.372894,76.474510 134.676208,78.607498 
	C127.925987,79.029968 121.699844,79.070328 115.473701,79.110687 
	C115.431747,78.274414 115.389801,77.438133 115.479568,76.305473 
	C116.097313,75.258667 116.583336,74.508240 117.125580,73.470856 
	C123.094315,73.133514 129.006836,73.083122 135.318726,73.002747 
z"/>
<path fill="#5E3ABA" opacity="1.000000" stroke="none" 
	d="
M115.482254,79.523483 
	C121.699844,79.070328 127.925987,79.029968 134.628693,78.983742 
	C135.346375,79.476952 135.587494,79.976021 135.934662,80.735611 
	C136.026535,81.745956 136.012344,82.495789 135.510361,83.621559 
	C128.712860,84.000725 122.403160,84.003944 116.093460,84.007164 
	C115.892578,82.650200 115.691696,81.293236 115.482254,79.523483 
z"/>
<path fill="#6B42BE" opacity="1.000000" stroke="none" 
	d="
M116.070786,84.355499 
	C122.403160,84.003944 128.712860,84.000725 135.487106,83.996613 
	C136.237625,84.788933 136.523621,85.582146 136.804932,86.692978 
	C130.540009,87.340912 124.279762,87.671204 117.558517,88.002563 
	C116.747711,86.903702 116.397903,85.803764 116.070786,84.355499 
z"/>
<path fill="#112B3B" opacity="1.000000" stroke="none" 
	d="
M89.119507,177.759003 
	C90.071953,176.351959 91.066414,175.310898 92.060867,174.269821 
	C92.940689,175.110291 94.503662,175.927460 94.533340,176.796951 
	C94.573547,177.974915 93.438255,179.193024 92.807228,180.393921 
	C91.591995,179.637604 90.376755,178.881302 89.119507,177.759003 
z"/>
<path fill="#112B3B" opacity="1.000000" stroke="none" 
	d="
M231.860855,176.354813 
	C231.047943,178.004456 230.132919,179.297470 229.217880,180.590485 
	C228.348755,179.960114 226.836365,179.404022 226.753143,178.682938 
	C226.608841,177.433060 227.349380,176.081009 227.718842,174.771790 
	C229.065460,175.180588 230.412094,175.589386 231.860855,176.354813 
z"/>
</svg>